<?xml version="1.0" encoding="UTF-8"?><svg id="Ebene_1" xmlns="http://www.w3.org/2000/svg" viewBox="0 0 141.73 141.73"><defs><style>.cls-1{fill:#fff;}.cls-2{fill:#1d1d1b;}</style></defs><path class="cls-2" d="m88.79,109.12H27.76v-59.88l30.52-20.05,30.52,20.05v59.88Zm-57.95-3.08h54.87v-55.13l-27.44-18.02-27.44,18.02v55.13Z"/><g><polygon class="cls-1" points="87.25 50.07 117.48 40.51 117.48 94.99 87.25 107.58 87.25 50.07"/><path class="cls-2" d="m85.71,108.82v-59.88l31.77-10.29,1.54,1v56.37l-30.23,13.02-3.08-.22Zm3.08-57.62v54.07l27.14-11.3v-51.35l-27.14,8.58Z"/></g><g><polygon class="cls-1" points="58.27 31.04 91.34 23.6 117.48 40.51 87.25 50.07 58.27 31.04"/><path class="cls-2" d="m87.02,51.76l-29.59-19.44.85-3.15,33.36-7.23,26.68,17.27-.37,2.76-30.93,9.78Zm-24.86-20.02l25.33,16.64,26.41-8.35-22.84-14.79-28.89,6.5Z"/></g></svg>