<?xml version="1.0" encoding="UTF-8"?><svg id="Ebene_1" xmlns="http://www.w3.org/2000/svg" viewBox="0 0 141.73 141.73"><defs><style>.cls-1{fill:#fff;}.cls-2{fill:#1d1d1b;}</style></defs><path class="cls-2" d="m91.15,94.67h-39.16v-16.95h39.16v16.95Zm-36.21-2.95h33.27v-11.06h-33.27v11.06Z"/><g><rect class="cls-1" x="34.71" y="98.08" width="54.97" height="14.01"/><path class="cls-2" d="m91.15,113.56h-57.92v-16.95h57.92v16.95Zm-54.97-2.95h51.59v-11.06h-51.59v11.06Z"/></g><path class="cls-2" d="m91.15,113.56l-2.97-16.44,21.73-9.31v16.1l-18.76,9.65Zm.03-14.52l.31,11.1,15.47-8.02v-9.84l-15.78,6.76Z"/><g><rect class="cls-1" x="37.53" y="49.18" width="51.72" height="49.36"/><path class="cls-2" d="m90.73,100.02h-54.67v-52.31h54.67v52.31Zm-51.72-2.95h48.77v-46.42h-48.77v46.42Z"/></g><path class="cls-2" d="m88.13,101.26l.09-10.95,19.35-8.19v10.12l-19.44,9.02Zm3.02-8.99l-.04,4.36,13.51-6.27v-3.8l-13.48,5.7Z"/><rect class="cls-2" x="106.54" y="29.21" width="2.95" height="52.02"/><g><rect class="cls-1" x="34.28" y="36.32" width="55.4" height="54.97"/><path class="cls-2" d="m91.15,92.76h-58.34v-57.92h58.34v57.92Zm-55.4-2.95h52.45v-52.02h-52.45v52.02Z"/></g><g><polygon class="cls-1" points="51.31 29.67 33.86 35.89 89.26 36.32 107.14 29.66 51.31 29.67"/><path class="cls-2" d="m89.51,37.79l-55.67-.43-.99-2.52,18.46-6.65h55.83s.51,2.85.51,2.85l-18.14,6.75Zm-47.31-3.32l46.8.37,9.96-3.71h-47.39s-9.37,3.34-9.37,3.34Z"/></g><path class="cls-2" d="m90.7,92.78l-2.52-1.03-.41-56.03,19.19-7.54h2.52v54.65l-18.78,9.95Zm.03-55.85l.38,51.28,15.43-6.59V28.36l-15.81,8.56Z"/></svg>