<?xml version="1.0" encoding="UTF-8"?><svg id="Ebene_2" xmlns="http://www.w3.org/2000/svg" viewBox="0 0 37.57 37.64"><defs><style>.cls-1,.cls-2{fill:#1d1d1b;}.cls-1,.cls-3{stroke-width:1.25px;}.cls-1,.cls-3,.cls-4{stroke:#1d1d1b;stroke-miterlimit:10;}.cls-5{fill:#fff;}.cls-3,.cls-4{fill:none;}</style></defs><g id="Ebene_1-2"><polygon class="cls-5" points=".77 23.3 .77 9.56 22.28 .98 22.28 13.53 .77 23.3"/><rect class="cls-2" x="21.9" y=".98" width=".97" height="24.97"/><polygon class="cls-5" points=".77 23.3 22.28 13.4 37.07 13.4 17.38 23.6 .77 23.3"/><polyline class="cls-4" points="22.28 13.4 37.07 13.4 37.07 25.95"/><polyline class="cls-1" points=".83 37.63 .77 23.6 .77 9.56"/><polyline class="cls-3" points=".83 23.6 17.38 23.6 17.38 37.63"/><polygon class="cls-2" points="1.06 10.37 0 9.56 22.89 0 22.89 1.04 1.06 10.37"/><polygon class="cls-2" points="1.06 23.53 0 22.71 22.28 13.11 22.74 13.78 1.06 23.53"/><polygon class="cls-2" points="17.83 24.05 16.77 23.24 37.07 13.47 37.07 14.51 17.83 24.05"/></g></svg>