<?xml version="1.0" encoding="UTF-8"?><svg id="Ebene_1" xmlns="http://www.w3.org/2000/svg" viewBox="0 0 141.73 141.73"><defs><style>.cls-1{fill:#fff;}.cls-2{fill:#1d1d1b;}</style></defs><polygon class="cls-1" points="31.34 75.93 31.34 44.09 81.17 24.22 81.17 53.29 31.34 75.93"/><rect class="cls-2" x="80.3" y="24.22" width="2.24" height="57.83"/><polygon class="cls-1" points="31.34 75.93 81.17 52.99 115.44 52.99 69.82 76.6 31.34 75.93"/><polygon class="cls-2" points="116.59 82.05 114.28 82.05 114.28 54.14 81.17 54.14 81.17 51.83 116.59 51.83 116.59 82.05"/><g><polyline class="cls-2" points="31.5 109.12 31.34 76.6 31.34 44.09"/><polygon class="cls-2" points="30.05 109.13 29.89 76.61 29.89 44.09 32.79 44.09 32.79 76.6 32.95 109.11 30.05 109.13"/></g><polygon class="cls-2" points="71.27 109.12 68.37 109.12 68.37 78.05 31.5 78.05 31.5 75.16 71.27 75.16 71.27 109.12"/><polygon class="cls-2" points="32.52 45.98 29.89 44.09 82.59 21.95 82.59 24.36 32.52 45.98"/><polygon class="cls-2" points="32.02 76.45 30.62 74.11 81.17 52.32 82.24 53.86 32.02 76.45"/><polygon class="cls-2" points="70.87 77.66 68.42 75.77 115.44 53.15 115.44 55.55 70.87 77.66"/></svg>