<?xml version="1.0" encoding="UTF-8"?><svg id="Ebene_2" xmlns="http://www.w3.org/2000/svg" viewBox="0 0 26.17 32.98"><defs><style>.cls-1,.cls-2{fill:#fff;}.cls-1,.cls-2,.cls-3,.cls-4{stroke:#1d1d1b;}.cls-1,.cls-4{stroke-miterlimit:2;}.cls-5{fill:#1d1d1b;}.cls-2,.cls-3{stroke-miterlimit:5;}.cls-3,.cls-4{fill:none;}</style></defs><g id="Ebene_1-2"><rect class="cls-3" x="7.01" y="21.31" width="12.29" height="4.75"/><rect class="cls-2" x=".65" y="27.72" width="18.65" height="4.75"/><polygon class="cls-4" points="19.44 32.62 25.67 26.39 25.67 21.31 19.3 27.72 19.44 32.62"/><rect class="cls-2" x="1.61" y="11.13" width="17.55" height="16.75"/><polygon class="cls-4" points="19.28 28.01 24.87 22.42 24.87 20.06 19.3 25.42 19.28 28.01"/><rect class="cls-3" x="25.52" y=".35" height="18.65" transform="translate(51.04 19.36) rotate(180)"/><rect class="cls-2" x=".5" y="6.76" width="18.8" height="18.65"/><polygon class="cls-1" points="6.28 .51 .36 6.62 19.16 6.76 25.23 .51 6.28 .51"/><path class="cls-5" d="m19.65,25.92l-.85-.35-.14-19.01L25.17,0h.85v19.55l-6.37,6.38Zm.01-18.95l.13,17.4,5.24-5.24V1.57l-5.36,5.4Z"/></g></svg>