<?xml version="1.0" encoding="UTF-8"?><svg id="Ebene_2" xmlns="http://www.w3.org/2000/svg" viewBox="0 0 29.6 28.27"><defs><style>.cls-1{fill:#fff;}.cls-2{fill:#1d1d1b;}.cls-3{fill:none;stroke:#1d1d1b;stroke-miterlimit:5;}</style></defs><g id="Ebene_1-2"><polygon class="cls-3" points="19.3 27.77 .5 27.77 .5 9.12 9.9 2.95 19.3 9.12 19.3 27.77"/><g><polygon class="cls-1" points="19.3 9.12 29.1 6.02 29.1 23.69 19.3 27.77 19.3 9.12"/><path class="cls-2" d="m18.8,28.18V8.75l10.3-3.34.5.32v18.28l-9.81,4.22-1-.07Zm1-18.69v17.54l8.81-3.67V6.7l-8.81,2.78Z"/></g><g><polygon class="cls-1" points="9.9 2.95 20.63 .53 29.1 6.02 19.3 9.12 9.9 2.95"/><path class="cls-2" d="m19.22,9.67L9.62,3.36l.27-1.02L20.72,0l8.65,5.6-.12.9-10.03,3.17ZM11.16,3.18l8.22,5.4,8.57-2.71-7.41-4.8-9.37,2.11Z"/></g></g></svg>