<?xml version="1.0" encoding="UTF-8"?><svg id="Ebene_2" xmlns="http://www.w3.org/2000/svg" viewBox="0 0 118.9 187.27"><defs><style>.cls-1{fill:#fff;}.cls-2{fill:#1d1d1b;}</style></defs><g id="Ebene_1-2"><polygon class="cls-1" points="40.47 11.13 41.74 64.79 41.74 64.79 110.19 103.55 110.19 103.55 110.19 103.55 111.78 52.17 40.47 11.13"/><path class="cls-2" d="m68.23,146.01L0,104.08l41.74-39.29.96.54,67.48,38.21,1.71-1.56v18.2s-42.95,25.17-42.95,25.17l-.72.66ZM4.91,103.58l62.96,38.69,39.99-36.59-65.67-37.19L4.91,103.58Zm103.99,5.21l-29.39,26.89,29.4-17.22v-9.67Z"/><polygon class="cls-2" points="108.91 119.33 108.78 53.91 43.47 16.32 43.47 81.48 3.22 105.12 1.7 102.54 40.47 79.77 40.47 11.13 111.78 52.17 111.91 119.32 108.91 119.33"/><rect class="cls-2" x="69.7" y="63.53" width="3" height="67.08" transform="translate(-48.31 111.54) rotate(-60.64)"/><polygon class="cls-2" points="117.91 48.12 33.95 0 34.48 75.74 37.46 72.94 36.99 5.2 114.93 49.87 115.86 182.13 37.93 138.44 37.53 127.21 34.54 125.27 34.94 140.21 118.9 187.27 117.91 48.12"/></g></svg>